<svg width="58" height="58" viewBox="0 0 58 58" fill="none" xmlns="http://www.w3.org/2000/svg">
<path fill-rule="evenodd" clip-rule="evenodd" d="M0.235901 28.6458C0.235901 12.8252 13.0185 0 28.7866 0C44.5546 0 57.3372 12.8252 57.3372 28.6458C57.3372 44.4664 44.5546 57.2917 28.7866 57.2917C13.0185 57.2917 0.235901 44.4664 0.235901 28.6458ZM45.4389 22.6668C46.4503 21.6476 46.4467 19.9987 45.4308 18.984L43.5916 17.1465C42.5758 16.1317 40.9325 16.1353 39.9211 17.1545L24.9408 32.2495L16.3209 23.7211C15.3002 22.7114 13.6569 22.7229 12.6504 23.7471L10.828 25.6013C9.8215 26.6253 9.83302 28.2742 10.8537 29.2841L23.152 41.4516C24.1691 42.4581 25.8056 42.4505 26.8137 41.4349L45.4389 22.6668Z" fill="black" fill-opacity="0.35"/>
</svg>
