<svg width="92" height="92" viewBox="0 0 92 92" fill="none" xmlns="http://www.w3.org/2000/svg">
<path d="M88.1975 18.7926L72.5095 3.10463C70.462 1.18139 67.779 0.0778649 64.9709 0.00396642C62.1627 -0.069932 59.4254 0.890954 57.2796 2.70384L5.74961 54.2338C3.89892 56.1001 2.74659 58.5463 2.48605 61.1617L0.0240642 85.0372C-0.0530649 85.8759 0.0557513 86.7212 0.342755 87.5129C0.629759 88.3046 1.08788 89.0233 1.68447 89.6177C2.21947 90.1483 2.85395 90.5682 3.55154 90.8531C4.24913 91.138 4.99609 91.2824 5.74961 91.2781H6.26491L30.1405 89.1024C32.7559 88.8419 35.202 87.6895 37.0684 85.8388L88.5983 34.3089C90.5984 32.196 91.6792 29.3764 91.6041 26.4679C91.529 23.5595 90.304 20.7995 88.1975 18.7926ZM29.1099 77.6513L11.9332 79.2544L13.4791 62.0778L45.8285 30.1292L61.2874 45.5882L29.1099 77.6513ZM68.7307 37.916L53.3862 22.5715L64.551 11.1204L80.1818 26.7511L68.7307 37.916Z" fill="#484848"/>
</svg>
