<svg width="43" height="55" viewBox="0 0 43 55" fill="none" xmlns="http://www.w3.org/2000/svg">
<path d="M21.5 24.5417C23.8404 24.5417 26.1282 23.8477 28.0742 22.5474C30.0202 21.2471 31.5369 19.399 32.4325 17.2368C33.3282 15.0745 33.5625 12.6952 33.1059 10.3998C32.6493 8.10433 31.5223 5.99583 29.8674 4.34091C28.2125 2.68599 26.104 1.55897 23.8085 1.10238C21.5131 0.645788 19.1338 0.880127 16.9715 1.77576C14.8093 2.6714 12.9612 4.18811 11.6609 6.13409C10.3606 8.08007 9.66663 10.3679 9.66663 12.7083C9.66663 15.8467 10.9133 18.8566 13.1325 21.0758C15.3517 23.2949 18.3616 24.5417 21.5 24.5417Z" fill="#767676"/>
<path d="M39.25 54.1252C40.0346 54.1252 40.787 53.8135 41.3418 53.2587C41.8966 52.7039 42.2083 51.9514 42.2083 51.1668C42.2083 45.6746 40.0265 40.4074 36.143 36.5238C32.2594 32.6403 26.9922 30.4585 21.5 30.4585C16.0078 30.4585 10.7405 32.6403 6.85696 36.5238C2.97339 40.4074 0.791626 45.6746 0.791626 51.1668C0.791626 51.9514 1.10331 52.7039 1.6581 53.2587C2.2129 53.8135 2.96536 54.1252 3.74996 54.1252H39.25Z" fill="#767676"/>
</svg>
